Coordinates
version=1
nRows=58
nColumns=11
inDegrees=yes

Units are S.I. units (second, meters, Newtons, ...)
If the header above contains a line with 'inDegrees', this indicates whether rotational values are in degrees (yes) or radians (no).

endheader
time	pelvis_tilt	pelvis_tx	pelvis_ty	hip_flexion_l	hip_flexion_r	knee_angle_l	knee_angle_r	ankle_angle_l	ankle_angle_r	lumbar
     35.70000000	    -12.40472485	      0.30859586	      0.97327641	     26.21563018	     26.21563018	    -18.75634646	    -18.75634646	      3.93609311	      3.93609311	    -10.91129041
     35.71000000	    -12.33220581	      0.31126488	      0.97393145	     25.77533145	     25.77533145	    -18.40580087	    -18.40580087	      3.93275460	      3.93275460	    -10.36544123
     35.72000000	    -11.89573414	      0.31407958	      0.97530434	     24.87978956	     24.87978956	    -17.95301157	    -17.95301157	      3.78993805	      3.78993805	    -10.29762109
     35.73000000	    -11.66787971	      0.31669291	      0.97622403	     24.24948791	     24.24948791	    -17.55699049	    -17.55699049	      3.75145843	      3.75145843	     -9.98961645
     35.74000000	    -11.62873971	      0.31916133	      0.97673675	     23.86562124	     23.86562124	    -17.23034030	    -17.23034030	      3.78184020	      3.78184020	     -9.46200134
     35.75000000	    -11.21552951	      0.32178374	      0.97798379	     23.00485890	     23.00485890	    -16.78458479	    -16.78458479	      3.72457018	      3.72457018	     -9.41897424
     35.76000000	    -11.19115783	      0.32409605	      0.97841969	     22.64656009	     22.64656009	    -16.46407661	    -16.46407661	      3.75979866	      3.75979866	     -8.91622995
     35.77000000	    -10.79186363	      0.32649833	      0.97958461	     21.82796521	     21.82796521	    -16.04434514	    -16.04434514	      3.71392910	      3.71392910	     -8.90549433
     35.78000000	    -10.78102438	      0.32873841	      0.97995604	     21.47056193	     21.47056193	    -15.68910197	    -15.68910197	      3.74816980	      3.74816980	     -8.40790167
     35.79000000	    -10.35720833	      0.33111454	      0.98112629	     20.59900311	     20.59900311	    -15.21446483	    -15.21446483	      3.66511745	      3.66511745	     -8.43712742
     35.80000000	    -10.16286315	      0.33323447	      0.98181479	     20.02707499	     20.02707499	    -14.81197381	    -14.81197381	      3.62874847	      3.62874847	     -8.21960144
     35.81000000	     -9.96548560	      0.33531306	      0.98248993	     19.44597425	     19.44597425	    -14.39253721	    -14.39253721	      3.59118193	      3.59118193	     -8.01028378
     35.82000000	     -9.77245498	      0.33734480	      0.98313201	     18.86609284	     18.86609284	    -13.96088979	    -13.96088979	      3.54916664	      3.54916664	     -7.80540382
     35.83000000	     -9.58283124	      0.33929857	      0.98374830	     18.28930078	     18.28930078	    -13.52120182	    -13.52120182	      3.50079789	      3.50079789	     -7.61001846
     35.84000000	     -9.59163932	      0.34107927	      0.98396068	     17.97428499	     17.97428499	    -13.15174410	    -13.15174410	      3.53210758	      3.53210758	     -7.18587146
     35.85000000	     -9.22436310	      0.34306798	      0.98490074	     17.15669990	     17.15669990	    -12.62045256	    -12.62045256	      3.42254790	      3.42254790	     -7.22564639
     35.86000000	     -9.17833424	      0.34483752	      0.98516685	     16.75223320	     16.75223320	    -12.19769212	    -12.19769212	      3.43557424	      3.43557424	     -6.86819663
     35.87000000	     -8.86099459	      0.34663652	      0.98593880	     16.01581959	     16.01581959	    -11.69307096	    -11.69307096	      3.34129133	      3.34129133	     -6.88214232
     35.88000000	     -8.70801476	      0.34838500	      0.98638425	     15.46635282	     15.46635282	    -11.20770607	    -11.20770607	      3.32620244	      3.32620244	     -6.68036222
     35.89000000	     -8.53167800	      0.35006147	      0.98683046	     14.91143799	     14.91143799	    -10.74933080	    -10.74933080	      3.29827946	      3.29827946	     -6.52609382
     35.90000000	     -8.29918073	      0.35166132	      0.98735039	     14.31305401	     14.31305401	    -10.31618719	    -10.31618719	      3.24121325	      3.24121325	     -6.46060800
     35.91000000	     -8.29278290	      0.35314918	      0.98741547	     13.99525163	     13.99525163	     -9.94534991	     -9.94534991	      3.27659949	      3.27659949	     -6.12183119
     35.92000000	     -7.92977306	      0.35478528	      0.98813573	     13.21778208	     13.21778208	     -9.43886473	     -9.43886473	      3.19141077	      3.19141077	     -6.23219372
     35.93000000	     -7.89177120	      0.35618784	      0.98820415	     12.88154198	     12.88154198	     -9.08241715	     -9.08241715	      3.21992424	      3.21992424	     -5.94989641
     35.94000000	     -7.84908485	      0.35750803	      0.98828146	     12.55403904	     12.55403904	     -8.73928424	     -8.73928424	      3.24575281	      3.24575281	     -5.70108630
     35.95000000	     -7.40694003	      0.35908690	      0.98909753	     11.70770598	     11.70770598	     -8.26076811	     -8.26076811	      3.14608313	      3.14608313	     -5.93378792
     35.96000000	     -7.36192381	      0.36037487	      0.98913317	     11.40187790	     11.40187790	     -7.95647827	     -7.95647827	      3.17423944	      3.17423944	     -5.69171931
     35.97000000	     -7.33908629	      0.36145636	      0.98912603	     11.17694564	     11.17694564	     -7.73320566	     -7.73320566	      3.20123276	      3.20123276	     -5.46455613
     35.98000000	     -7.03308371	      0.36299767	      0.98961912	     10.51923185	     10.51923185	     -7.32571776	     -7.32571776	      3.18621065	      3.18621065	     -5.51348315
     35.99000000	     -6.76026031	      0.36426894	      0.99004133	      9.97792376	      9.97792376	     -7.03999911	     -7.03999911	      3.14729367	      3.14729367	     -5.58600358
     36.00000000	     -6.73489463	      0.36520303	      0.98999080	      9.87728620	      9.87728620	     -7.05428014	     -7.05428014	      3.14986872	      3.14986872	     -5.39130407
     36.01000000	     -6.59387227	      0.36649480	      0.99015814	      9.45600948	      9.45600948	     -6.70449776	     -6.70449776	      3.20435787	      3.20435787	     -5.28417073
     36.02000000	     -6.55717378	      0.36741251	      0.99010910	      9.35874299	      9.35874299	     -6.73245696	     -6.73245696	      3.20472576	      3.20472576	     -5.10937857
     36.03000000	     -6.21142537	      0.36874951	      0.99063356	      8.72378061	      8.72378061	     -6.39871620	     -6.39871620	      3.24205565	      3.24205565	     -5.26933639
     36.04000000	     -6.17401540	      0.36964867	      0.99057307	      8.63806852	      8.63806852	     -6.43579418	     -6.43579418	      3.24349320	      3.24349320	     -5.10569278
     36.05000000	     -6.13316236	      0.37056127	      0.99051435	      8.54718086	      8.54718086	     -6.46469210	     -6.46469210	      3.24955618	      3.24955618	     -4.94735580
     36.06000000	     -6.08938835	      0.37146680	      0.99045095	      8.45699232	      8.45699232	     -6.49703331	     -6.49703331	      3.25657631	      3.25657631	     -4.79832707
     36.07000000	     -6.03894661	      0.37239164	      0.99039505	      8.35955465	      8.35955465	     -6.52904449	     -6.52904449	      3.26865546	      3.26865546	     -4.65815984
     36.08000000	     -5.98113534	      0.37330255	      0.99035752	      8.25818928	      8.25818928	     -6.56422403	     -6.56422403	      3.28523024	      3.28523024	     -4.53357477
     36.09000000	     -5.90770149	      0.37416358	      0.99035734	      8.14460263	      8.14460263	     -6.59689443	     -6.59689443	      3.31577046	      3.31577046	     -4.44954306
     36.10000000	     -5.28409137	      0.37533492	      0.99129533	      7.32398232	      7.32398232	     -6.48234693	     -6.48234693	      3.72389937	      3.72389937	     -5.02574702
     36.11000000	     -5.24436548	      0.37610186	      0.99123620	      7.26329280	      7.26329280	     -6.53328388	     -6.53328388	      3.72003302	      3.72003302	     -4.91971226
     36.12000000	     -5.19460300	      0.37694213	      0.99118249	      7.18882293	      7.18882293	     -6.59820184	     -6.59820184	      3.72053633	      3.72053633	     -4.81233462
     36.13000000	     -4.90815238	      0.37776515	      0.99154878	      6.84950431	      6.84950431	     -6.65751043	     -6.65751043	      3.88463092	      3.88463092	     -5.02055346
     36.14000000	     -4.87327266	      0.37851881	      0.99149342	      6.79162742	      6.79162742	     -6.70701811	     -6.70701811	      3.88277698	      3.88277698	     -4.91938447
     36.15000000	     -4.83367336	      0.37922384	      0.99144225	      6.73473793	      6.73473793	     -6.75903263	     -6.75903263	      3.88344039	      3.88344039	     -4.82933501
     36.16000000	     -4.79445341	      0.37991765	      0.99140557	      6.67745122	      6.67745122	     -6.81324074	     -6.81324074	      3.88566264	      3.88566264	     -4.74670424
     36.17000000	     -4.74396638	      0.38058408	      0.99138719	      6.61681309	      6.61681309	     -6.87676061	     -6.87676061	      3.89312239	      3.89312239	     -4.68260233
     36.18000000	     -4.40139612	      0.38125342	      0.99188036	      6.23483656	      6.23483656	     -6.95562976	     -6.95562976	      4.15999070	      4.15999070	     -5.01290419
     36.19000000	     -4.37400865	      0.38185550	      0.99182801	      6.19385479	      6.19385479	     -6.99787708	     -6.99787708	      4.15625731	      4.15625731	     -4.93674948
     36.20000000	     -4.34414704	      0.38244337	      0.99179612	      6.15409480	      6.15409480	     -7.04555372	     -7.04555372	      4.15410105	      4.15410105	     -4.87122736
     36.21000000	     -4.31192577	      0.38299869	      0.99177818	      6.11517098	      6.11517098	     -7.10026076	     -7.10026076	      4.15352114	      4.15352114	     -4.81707761
     36.22000000	     -4.27136025	      0.38352287	      0.99175612	      6.07869152	      6.07869152	     -7.17004976	     -7.17004976	      4.15649358	      4.15649358	     -4.78728002
     36.23000000	     -4.07499806	      0.38386791	      0.99201994	      5.92913149	      5.92913149	     -7.34581480	     -7.34581480	      4.35852069	      4.35852069	     -4.99752691
     36.24000000	     -4.05654434	      0.38433903	      0.99199206	      5.90285091	      5.90285091	     -7.38001931	     -7.38001931	      4.35663762	      4.35663762	     -4.95264193
     36.25000000	     -4.03290944	      0.38477462	      0.99198073	      5.87848381	      5.87848381	     -7.42805454	     -7.42805454	      4.35594358	      4.35594358	     -4.92240790
     36.26000000	     -3.96182660	      0.38501153	      0.99204914	      5.86488344	      5.86488344	     -7.57908969	     -7.57908969	      4.37840536	      4.37840536	     -5.00371261
     36.27000000	     -3.91915131	      0.38533656	      0.99207991	      5.83884147	      5.83884147	     -7.65644373	     -7.65644373	      4.42748835	      4.42748835	     -5.02574265
